<?xml version="1.0" encoding="UTF-8" standalone="no"?>
<!DOCTYPE svg PUBLIC "-//W3C//DTD SVG 1.1//EN"
 "http://www.w3.org/Graphics/SVG/1.1/DTD/svg11.dtd">
<!-- Generated by graphviz version 13.1.2 (0)
 -->
<!-- Pages: 1 -->
<svg width="997pt" height="1956pt"
  xmlns="http://www.w3.org/2000/svg" xmlns:xlink="http://www.w3.org/1999/xlink">
<g id="graph0" class="graph" transform="scale(1.66667 1.66667) rotate(0) translate(4 1169.5)">
<polygon fill="white" stroke="none" points="-4,4 -4,-1169.5 594,-1169.5 594,4 -4,4"/>
<g id="clust1" class="cluster">
<title>cluster_1</title>
<polygon fill="none" stroke="gray" stroke-dasharray="5,2" points="8,-8 8,-1157.5 582,-1157.5 582,-8 8,-8"/>
<text xml:space="preserve" text-anchor="middle" x="508.38" y="-17.5" font-family="Times,serif" font-size="10.00">0㎳ ⊕ Δ0.341㎳ ⟹ 0.341㎳</text>
</g>
<!-- 1$\:user/req -->
<g id="node1" class="node">
<title>1$\:user/req</title>
<polygon fill="skyblue" stroke="silver" stroke-dasharray="1,5" points="438,-1149.5 360,-1149.5 360,-1101.25 438,-1101.25 438,-1149.5"/>
<text xml:space="preserve" text-anchor="start" x="372" y="-1132" font-family="monospace bold" font-size="10.00">:user/req</text>
<text xml:space="preserve" text-anchor="start" x="372" y="-1113.65" font-family="monospace" font-size="8.00" fill="blue">{}</text>
</g>
<!-- 1$\:user/params -->
<g id="node5" class="node">
<title>1$\:user/params</title>
<polygon fill="lemonchiffon" stroke="silver" points="515.25,-992.25 282.75,-992.25 282.75,-911.75 515.25,-911.75 515.25,-992.25"/>
<text xml:space="preserve" text-anchor="start" x="363" y="-974.75" font-family="monospace bold" font-size="10.00">:user/params</text>
<text xml:space="preserve" text-anchor="start" x="294.75" y="-956.4" font-family="monospace" font-size="8.00" fill="blue">:user/params</text>
<text xml:space="preserve" text-anchor="start" x="294.75" y="-939.35" font-family="monospace" font-size="7.00" fill="darkslategray">thread</text>
<text xml:space="preserve" text-anchor="start" x="449.25" y="-939.35" font-family="monospace" font-size="7.00" fill="darkslategray">knitty&#45;fjp&#45;2</text>
<text xml:space="preserve" text-anchor="start" x="294.75" y="-923.23" font-family="monospace" font-size="7.00" fill="darkslategray">time</text>
<text xml:space="preserve" text-anchor="start" x="327.75" y="-924.6" font-family="monospace" font-size="7.00" fill="darkslategray">0.15㎳ ⊕ Δ0.0124㎳ ⊎ Δ0.0044㎳ ⟹ </text>
<text xml:space="preserve" text-anchor="start" x="474" y="-924.6" font-family="monospace" font-size="7.00">0.167㎳</text>
</g>
<!-- 1$\:user/req&#45;&gt;1$\:user/params -->
<g id="edge8" class="edge">
<title>1$\:user/req&#45;&gt;1$\:user/params</title>
<path fill="none" stroke="dimgrey" d="M399,-1092.96C399,-1064.72 399,-1023.11 399,-992.6"/>
<polygon fill="dimgrey" stroke="dimgrey" points="399,-1099.69 395.85,-1092.69 399,-1097.41 399,-1092.69 399,-1092.69 399,-1092.69 399,-1097.41 402.15,-1092.69 399,-1099.69"/>
</g>
<!-- 1$\:user/api&#45;format -->
<g id="node2" class="node">
<title>1$\:user/api&#45;format</title>
<polygon fill="lemonchiffon" stroke="silver" points="295,-656.5 49,-656.5 49,-576 295,-576 295,-656.5"/>
<text xml:space="preserve" text-anchor="start" x="124" y="-639" font-family="monospace bold" font-size="10.00">:user/api&#45;format</text>
<text xml:space="preserve" text-anchor="start" x="61" y="-620.65" font-family="monospace" font-size="8.00" fill="blue">:api&#45;v1</text>
<text xml:space="preserve" text-anchor="start" x="61" y="-603.6" font-family="monospace" font-size="7.00" fill="darkslategray">thread</text>
<text xml:space="preserve" text-anchor="start" x="229" y="-603.6" font-family="monospace" font-size="7.00" fill="darkslategray">knitty&#45;fjp&#45;2</text>
<text xml:space="preserve" text-anchor="start" x="61" y="-587.48" font-family="monospace" font-size="7.00" fill="darkslategray">time</text>
<text xml:space="preserve" text-anchor="start" x="94" y="-588.85" font-family="monospace" font-size="7.00" fill="darkslategray">0.214㎳ ⊕ Δ0.00242㎳ ⊎ Δ0.00408㎳ ⟹ </text>
<text xml:space="preserve" text-anchor="start" x="253.75" y="-588.85" font-family="monospace" font-size="7.00">0.221㎳</text>
</g>
<!-- 1$\:user/home&#45;page&#45;for&#45;api -->
<g id="node8" class="node">
<title>1$\:user/home&#45;page&#45;for&#45;api</title>
<polygon fill="lightgreen" stroke="silver" stroke-width="2" points="345.75,-119.5 74.25,-119.5 74.25,-39 345.75,-39 345.75,-119.5"/>
<text xml:space="preserve" text-anchor="start" x="141" y="-102" font-family="monospace bold" font-size="10.00">:user/home&#45;page&#45;for&#45;api</text>
<text xml:space="preserve" text-anchor="start" x="86.25" y="-83.65" font-family="monospace" font-size="8.00" fill="blue">&quot;:api&#45;v1|{:data \&quot;Hello\&quot;, :name \&quot;User\&quot;, :c \&quot;ABC\&quot;}&quot;</text>
<text xml:space="preserve" text-anchor="start" x="86.25" y="-66.6" font-family="monospace" font-size="7.00" fill="darkslategray">thread</text>
<text xml:space="preserve" text-anchor="start" x="279.75" y="-66.6" font-family="monospace" font-size="7.00" fill="darkslategray">knitty&#45;fjp&#45;2</text>
<text xml:space="preserve" text-anchor="start" x="86.25" y="-50.48" font-family="monospace" font-size="7.00" fill="darkslategray">time</text>
<text xml:space="preserve" text-anchor="start" x="153.75" y="-51.85" font-family="monospace" font-size="7.00" fill="darkslategray">0.129㎳ ⊕ Δ0.0944㎳ ⊎ Δ0.0997㎳ ⟹ </text>
<text xml:space="preserve" text-anchor="start" x="304.5" y="-51.85" font-family="monospace" font-size="7.00">0.323㎳</text>
</g>
<!-- 1$\:user/api&#45;format&#45;&gt;1$\:user/home&#45;page&#45;for&#45;api -->
<g id="edge2" class="edge">
<title>1$\:user/api&#45;format&#45;&gt;1$\:user/home&#45;page&#45;for&#45;api</title>
<path fill="none" stroke="black" stroke-width="2" d="M80.61,-570.86C62.69,-557.73 46.28,-541.51 36,-522 19.32,-490.35 32.92,-477.15 36,-441.5 43.81,-351.05 32.02,-322.24 71,-240.25 93.27,-193.39 133.18,-149.61 164.54,-119.74"/>
<polygon fill="black" stroke="black" stroke-width="2" points="77.66,-571.78 84.79,-573.81 80.49,-567.78 77.66,-571.78"/>
<text xml:space="preserve" text-anchor="middle" x="58.7" y="-379.9" font-family="Times,serif" font-size="8.00">+0.102㎳</text>
</g>
<!-- 1$\:user/user&#45;session -->
<g id="node3" class="node">
<title>1$\:user/user&#45;session</title>
<polygon fill="lemonchiffon" stroke="silver" points="300,-522 54,-522 54,-441.5 300,-441.5 300,-522"/>
<text xml:space="preserve" text-anchor="start" x="123" y="-504.5" font-family="monospace bold" font-size="10.00">:user/user&#45;session</text>
<text xml:space="preserve" text-anchor="start" x="66" y="-486.15" font-family="monospace" font-size="8.00" fill="blue">{:cookie &quot;ABC&quot;}</text>
<text xml:space="preserve" text-anchor="start" x="66" y="-469.1" font-family="monospace" font-size="7.00" fill="darkslategray">thread</text>
<text xml:space="preserve" text-anchor="start" x="234" y="-469.1" font-family="monospace" font-size="7.00" fill="darkslategray">knitty&#45;fjp&#45;2</text>
<text xml:space="preserve" text-anchor="start" x="66" y="-452.98" font-family="monospace" font-size="7.00" fill="darkslategray">time</text>
<text xml:space="preserve" text-anchor="start" x="99" y="-454.35" font-family="monospace" font-size="7.00" fill="darkslategray">0.196㎳ ⊕ Δ0.00289㎳ ⊎ Δ0.00244㎳ ⟹ </text>
<text xml:space="preserve" text-anchor="start" x="258.75" y="-454.35" font-family="monospace" font-size="7.00">0.201㎳</text>
</g>
<!-- 1$\:user/home&#45;page&#45;data -->
<g id="node4" class="node">
<title>1$\:user/home&#45;page&#45;data</title>
<polygon fill="lemonchiffon" stroke="silver" points="330.75,-320.75 89.25,-320.75 89.25,-240.25 330.75,-240.25 330.75,-320.75"/>
<text xml:space="preserve" text-anchor="start" x="150" y="-303.25" font-family="monospace bold" font-size="10.00">:user/home&#45;page&#45;data</text>
<text xml:space="preserve" text-anchor="start" x="101.25" y="-284.9" font-family="monospace" font-size="8.00" fill="blue">{:data &quot;Hello&quot;, :name &quot;User&quot;, :c &quot;ABC&quot;}</text>
<text xml:space="preserve" text-anchor="start" x="101.25" y="-267.85" font-family="monospace" font-size="7.00" fill="darkslategray">thread</text>
<text xml:space="preserve" text-anchor="start" x="264.75" y="-267.85" font-family="monospace" font-size="7.00" fill="darkslategray">knitty&#45;fjp&#45;2</text>
<text xml:space="preserve" text-anchor="start" x="101.25" y="-251.72" font-family="monospace" font-size="7.00" fill="darkslategray">time</text>
<text xml:space="preserve" text-anchor="start" x="134.25" y="-253.1" font-family="monospace" font-size="7.00" fill="darkslategray">0.184㎳ ⊕ Δ0.0196㎳ ⊎ Δ0.00414㎳ ⟹ </text>
<text xml:space="preserve" text-anchor="start" x="289.5" y="-253.1" font-family="monospace" font-size="7.00">0.208㎳</text>
</g>
<!-- 1$\:user/user&#45;session&#45;&gt;1$\:user/home&#45;page&#45;data -->
<g id="edge4" class="edge">
<title>1$\:user/user&#45;session&#45;&gt;1$\:user/home&#45;page&#45;data</title>
<path fill="none" stroke="black" stroke-width="2" d="M184.84,-433.39C190.51,-399.15 198.09,-353.43 203.44,-321.12"/>
<polygon fill="black" stroke="black" stroke-width="2" points="182.74,-431.09 184.01,-438.4 187.58,-431.89 182.74,-431.09"/>
<text xml:space="preserve" text-anchor="middle" x="218.86" y="-379.9" font-family="Times,serif" font-size="8.00">+0.00675㎳</text>
</g>
<!-- 1$\:user/home&#45;page&#45;data&#45;&gt;1$\:user/home&#45;page&#45;for&#45;api -->
<g id="edge6" class="edge">
<title>1$\:user/home&#45;page&#45;data&#45;&gt;1$\:user/home&#45;page&#45;for&#45;api</title>
<path fill="none" stroke="black" stroke-width="2" d="M210,-231.7C210,-197.51 210,-152.04 210,-119.87"/>
<polygon fill="black" stroke="black" stroke-width="2" points="207.55,-230.11 210,-237.11 212.45,-230.11 207.55,-230.11"/>
<text xml:space="preserve" text-anchor="middle" x="229.12" y="-178.65" font-family="Times,serif" font-size="8.00">+0.115㎳</text>
</g>
<!-- 1$\:user/params&#45;&gt;1$\:user/api&#45;format -->
<g id="edge5" class="edge">
<title>1$\:user/params&#45;&gt;1$\:user/api&#45;format</title>
<path fill="none" stroke="dimgrey" d="M354.08,-905.5C325.12,-874.75 287.82,-832.36 260,-791 230.75,-747.51 204.66,-692.99 188.63,-656.74"/>
<polygon fill="dimgrey" stroke="dimgrey" points="352.12,-907 358.71,-910.39 355.67,-903.63 352.12,-907"/>
<text xml:space="preserve" text-anchor="middle" x="332.3" y="-850.15" font-family="Times,serif" font-size="8.00">+0.0541㎳</text>
</g>
<!-- 1$\:user/user&#45;id -->
<g id="node6" class="node">
<title>1$\:user/user&#45;id</title>
<polygon fill="lemonchiffon" stroke="silver" points="519.75,-791 278.25,-791 278.25,-710.5 519.75,-710.5 519.75,-791"/>
<text xml:space="preserve" text-anchor="start" x="360" y="-773.5" font-family="monospace bold" font-size="10.00">:user/user&#45;id</text>
<text xml:space="preserve" text-anchor="start" x="290.25" y="-755.15" font-family="monospace" font-size="8.00" fill="blue">123</text>
<text xml:space="preserve" text-anchor="start" x="290.25" y="-738.1" font-family="monospace" font-size="7.00" fill="darkslategray">thread</text>
<text xml:space="preserve" text-anchor="start" x="453.75" y="-738.1" font-family="monospace" font-size="7.00" fill="darkslategray">knitty&#45;fjp&#45;2</text>
<text xml:space="preserve" text-anchor="start" x="290.25" y="-721.98" font-family="monospace" font-size="7.00" fill="darkslategray">time</text>
<text xml:space="preserve" text-anchor="start" x="323.25" y="-723.35" font-family="monospace" font-size="7.00" fill="darkslategray">0.146㎳ ⊕ Δ0.0238㎳ ⊎ Δ0.00236㎳ ⟹ </text>
<text xml:space="preserve" text-anchor="start" x="478.5" y="-723.35" font-family="monospace" font-size="7.00">0.172㎳</text>
</g>
<!-- 1$\:user/params&#45;&gt;1$\:user/user&#45;id -->
<g id="edge9" class="edge">
<title>1$\:user/params&#45;&gt;1$\:user/user&#45;id</title>
<path fill="none" stroke="black" stroke-width="2" d="M399,-903.2C399,-869.01 399,-823.54 399,-791.37"/>
<polygon fill="black" stroke="black" stroke-width="2" points="396.55,-901.61 399,-908.61 401.45,-901.61 396.55,-901.61"/>
<text xml:space="preserve" text-anchor="middle" x="423.38" y="-850.15" font-family="Times,serif" font-size="8.00">+0.00496㎳</text>
</g>
<!-- 1$\:user/user&#45;id&#45;&gt;1$\:user/user&#45;session -->
<g id="edge1" class="edge">
<title>1$\:user/user&#45;id&#45;&gt;1$\:user/user&#45;session</title>
<path fill="none" stroke="dimgrey" d="M383.15,-702.43C368.98,-665.14 345.44,-613.38 313,-576 295.08,-555.35 271.61,-537.13 249.21,-522.4"/>
<polygon fill="dimgrey" stroke="dimgrey" points="380.76,-703.04 385.5,-708.74 385.35,-701.33 380.76,-703.04"/>
<text xml:space="preserve" text-anchor="middle" x="385.14" y="-615.02" font-family="Times,serif" font-size="8.00">+0.0294㎳</text>
</g>
<!-- 1$\:user/user -->
<g id="node7" class="node">
<title>1$\:user/user</title>
<polygon fill="lemonchiffon" stroke="silver" points="573.5,-522 336.5,-522 336.5,-441.5 573.5,-441.5 573.5,-522"/>
<text xml:space="preserve" text-anchor="start" x="425" y="-504.5" font-family="monospace bold" font-size="10.00">:user/user</text>
<text xml:space="preserve" text-anchor="start" x="348.5" y="-486.15" font-family="monospace" font-size="8.00" fill="blue">{:name &quot;User&quot;, :id 123}</text>
<text xml:space="preserve" text-anchor="start" x="348.5" y="-469.1" font-family="monospace" font-size="7.00" fill="darkslategray">thread</text>
<text xml:space="preserve" text-anchor="start" x="507.5" y="-469.1" font-family="monospace" font-size="7.00" fill="darkslategray">knitty&#45;fjp&#45;2</text>
<text xml:space="preserve" text-anchor="start" x="348.5" y="-452.98" font-family="monospace" font-size="7.00" fill="darkslategray">time</text>
<text xml:space="preserve" text-anchor="start" x="381.5" y="-454.35" font-family="monospace" font-size="7.00" fill="darkslategray">0.14㎳ ⊕ Δ0.0334㎳ ⊎ Δ0.00377㎳ ⟹ </text>
<text xml:space="preserve" text-anchor="start" x="532.25" y="-454.35" font-family="monospace" font-size="7.00">0.177㎳</text>
</g>
<!-- 1$\:user/user&#45;id&#45;&gt;1$\:user/user -->
<g id="edge7" class="edge">
<title>1$\:user/user&#45;id&#45;&gt;1$\:user/user</title>
<path fill="none" stroke="black" stroke-width="2" d="M409.06,-701.78C419.83,-650.45 436.7,-570.01 446.72,-522.22"/>
<polygon fill="black" stroke="black" stroke-width="2" points="406.98,-699.75 407.94,-707.1 411.78,-700.76 406.98,-699.75"/>
<text xml:space="preserve" text-anchor="middle" x="459.66" y="-615.02" font-family="Times,serif" font-size="8.00">+0.00543㎳</text>
</g>
<!-- 1$\:user/user&#45;&gt;1$\:user/home&#45;page&#45;data -->
<g id="edge10" class="edge">
<title>1$\:user/user&#45;&gt;1$\:user/home&#45;page&#45;data</title>
<path fill="none" stroke="dimgrey" d="M399.89,-435.93C357.45,-401.41 299.33,-354.15 258.6,-321.03"/>
<polygon fill="dimgrey" stroke="dimgrey" points="398.15,-437.68 405.13,-440.19 401.24,-433.87 398.15,-437.68"/>
<text xml:space="preserve" text-anchor="middle" x="361.6" y="-379.9" font-family="Times,serif" font-size="8.00">+0.0308㎳</text>
</g>
<!-- 1$\:user/user&#45;&gt;1$\:user/home&#45;page&#45;for&#45;api -->
<g id="edge3" class="edge">
<title>1$\:user/user&#45;&gt;1$\:user/home&#45;page&#45;for&#45;api</title>
<path fill="none" stroke="black" stroke-width="2" d="M438.9,-433.27C420.83,-383.18 388.78,-302.98 349,-240.25 320.72,-195.66 280.47,-150.79 250.55,-119.96"/>
<polygon fill="black" stroke="black" stroke-width="2" points="435.99,-432.42 440.66,-438.19 440.61,-430.77 435.99,-432.42"/>
<text xml:space="preserve" text-anchor="middle" x="410.22" y="-279.27" font-family="Times,serif" font-size="8.00">+0.146㎳</text>
</g>
</g>
</svg>
